<?xml version="1.0" encoding="utf-8"?>
<!-- Generator: Adobe Illustrator 25.0.0, SVG Export Plug-In . SVG Version: 6.00 Build 0)  -->
<svg version="1.1" id="Capa_1" xmlns="http://www.w3.org/2000/svg" xmlns:xlink="http://www.w3.org/1999/xlink" x="0px" y="0px"
	 viewBox="0 0 512 512" style="enable-background:new 0 0 512 512;" xml:space="preserve">
<style type="text/css">
	.st0{fill:url(#SVGID_1_);}
	.st1{fill:#FFFFFF;}
</style>
<linearGradient id="SVGID_1_" gradientUnits="userSpaceOnUse" x1="0" y1="256" x2="512" y2="256">
	<stop  offset="0" style="stop-color:#832567"/>
	<stop  offset="1" style="stop-color:#DC1018"/>
</linearGradient>
<circle class="st0" cx="256" cy="256" r="256"/>
<path class="st1" d="M256,254.8c-35.3,0-64,28.7-64,64s28.7,64,64,64s64-28.7,64-64S291.3,254.8,256,254.8z M256,354.4
	c-19.6,0-35.6-16-35.6-35.6s16-35.6,35.6-35.6c19.6,0,35.6,16,35.6,35.6S275.6,354.4,256,354.4z M430.3,304.3
	c-7,3.5-15.6,0.7-19.1-6.3c-26.4-52.2-85.2-90.1-155.2-90.1c-70,0-128.8,37.8-155.2,90.1c-3.5,7-12.1,9.8-19.1,6.3
	c-7-3.5-9.8-12.1-6.3-19.1c15.7-31.1,40.6-57.4,71.9-76.2l-38.5-38.5c-5.6-5.6-5.6-14.6,0-20.1c5.6-5.6,14.6-5.6,20.1,0l45.2,45.2
	c21.3-8.8,44.2-14.1,67.7-15.6v-64.5c0-7.9,6.4-14.2,14.2-14.2c7.9,0,14.2,6.4,14.2,14.2v64.5c23.5,1.5,46.4,6.8,67.7,15.6
	l45.2-45.2c5.6-5.6,14.6-5.6,20.1,0c5.6,5.6,5.6,14.6,0,20.1l-38.5,38.5c31.4,18.8,56.3,45.1,71.9,76.2
	C440.2,292.2,437.4,300.7,430.3,304.3z"/>
</svg>
